<svg width="114" height="68" viewBox="0 0 114 68" fill="none" xmlns="http://www.w3.org/2000/svg">
<path d="M107.335 0.815095C106.956 0.0780679 106.052 -0.212768 105.315 0.165494L93.3045 6.32964C92.5675 6.7079 92.2767 7.61202 92.6549 8.34905C93.0332 9.08608 93.9373 9.37691 94.6744 8.99865L105.35 3.51941L110.83 14.1955C111.208 14.9325 112.112 15.2233 112.849 14.8451C113.586 14.4668 113.877 13.5627 113.499 12.8256L107.335 0.815095ZM0.373183 67.4946C1.45228 67.5862 2.57826 67.6595 3.74686 67.7127L3.88325 64.7158C2.75222 64.6643 1.66537 64.5935 0.626817 64.5054L0.373183 67.4946ZM10.5146 67.7912C12.675 67.7475 14.9324 67.6392 17.2681 67.4574L17.0352 64.4664C14.7566 64.6438 12.5566 64.7493 10.4539 64.7919L10.5146 67.7912ZM23.9882 66.7497C26.1689 66.4605 28.398 66.1071 30.6623 65.683L30.11 62.7343C27.8993 63.1483 25.723 63.4934 23.5938 63.7758L23.9882 66.7497ZM37.2684 64.2608C39.4229 63.7356 41.5974 63.144 43.7815 62.481L42.9101 59.6104C40.7809 60.2567 38.6601 60.8337 36.5578 61.3462L37.2684 64.2608ZM50.1942 60.3307C52.2891 59.5593 54.3837 58.718 56.4688 57.8023L55.2624 55.0555C53.2352 55.9458 51.1973 56.7644 49.1576 57.5155L50.1942 60.3307ZM62.5759 54.8845C64.5656 53.8533 66.5381 52.7482 68.4851 51.5651L66.9273 49.0013C65.0402 50.1479 63.127 51.2199 61.1954 52.2209L62.5759 54.8845ZM74.1479 47.844C75.9776 46.5454 77.7756 45.1697 79.5343 43.7134L77.6208 41.4028C75.9211 42.8104 74.1823 44.1408 72.4115 45.3976L74.1479 47.844ZM84.5891 39.1907C86.1998 37.6336 87.767 35.9985 89.2837 34.2823L87.0358 32.2957C85.572 33.952 84.0593 35.5303 82.504 37.0338L84.5891 39.1907ZM93.5752 29.0209C94.9158 27.2379 96.2046 25.3792 97.4359 23.442L94.9041 21.8327C93.7152 23.7032 92.4711 25.4974 91.1774 27.2181L93.5752 29.0209ZM100.857 17.5705C101.902 15.6094 102.891 13.5775 103.819 11.4725L101.074 10.2618C100.175 12.2994 99.219 14.2647 98.2094 16.1603L100.857 17.5705ZM106.329 5.18711C106.71 4.12788 107.076 3.05203 107.428 1.95934L104.572 1.04066C104.231 2.10127 103.875 3.14503 103.506 4.17217L106.329 5.18711Z" fill="#7204FF"/>
</svg>
