<svg width="36" height="34" viewBox="0 0 36 34" fill="none" xmlns="http://www.w3.org/2000/svg">
<rect x="0.420837" y="1" width="32.5792" height="32.5792" rx="8.34" fill="url(#paint0_linear_480_7)"/>
<path d="M10.9106 18.6014L13.0734 24.5875C13.0734 24.5875 13.3438 25.1476 13.6333 25.1476C13.9229 25.1476 18.2293 20.6675 18.2293 20.6675L23.0183 11.4177L10.9878 17.0561L10.9106 18.6014Z" fill="#C8DAEA"/>
<path d="M13.7777 20.1367L13.3625 24.5491C13.3625 24.5491 13.1887 25.9011 14.5404 24.5491C15.8921 23.1971 17.1859 22.1545 17.1859 22.1545" fill="#A9C6D8"/>
<path d="M10.949 18.8149L6.50016 17.3654C6.50016 17.3654 5.96848 17.1497 6.13968 16.6605C6.17492 16.5597 6.24601 16.4738 6.45869 16.3263C7.44443 15.6393 24.7039 9.43574 24.7039 9.43574C24.7039 9.43574 25.1912 9.27153 25.4786 9.38075C25.5497 9.40276 25.6137 9.44326 25.664 9.49811C25.7143 9.55296 25.7492 9.62019 25.765 9.69292C25.796 9.82139 25.809 9.95355 25.8036 10.0856C25.8022 10.1998 25.7884 10.3057 25.7779 10.4718C25.6728 12.1678 22.527 24.8261 22.527 24.8261C22.527 24.8261 22.3388 25.5668 21.6645 25.5922C21.4988 25.5975 21.3337 25.5695 21.179 25.5097C21.0244 25.4498 20.8834 25.3595 20.7644 25.244C19.4411 24.1058 14.8675 21.032 13.8568 20.356C13.834 20.3405 13.8148 20.3203 13.8005 20.2967C13.7862 20.2731 13.7771 20.2467 13.7739 20.2193C13.7597 20.1481 13.8372 20.0598 13.8372 20.0598C13.8372 20.0598 21.8012 12.9808 22.0131 12.2377C22.0295 12.1801 21.9675 12.1517 21.8843 12.1769C21.3553 12.3715 12.1858 18.1622 11.1738 18.8012C11.1009 18.8233 11.024 18.828 10.949 18.8149Z" fill="white"/>
<rect x="28" width="8" height="8" rx="4" fill="#EF0B6B"/>
<defs>
<linearGradient id="paint0_linear_480_7" x1="16.7104" y1="33.5792" x2="16.7104" y2="1" gradientUnits="userSpaceOnUse">
<stop stop-color="#1D93D2"/>
<stop offset="1" stop-color="#38B0E3"/>
</linearGradient>
</defs>
</svg>
