<svg width="90" height="195" viewBox="0 0 90 195" fill="none" xmlns="http://www.w3.org/2000/svg">
<path fill-rule="evenodd" clip-rule="evenodd" d="M-44.8113 132.787C-44.8956 133.102 -45.0568 133.272 -45.354 133.215C-45.8657 133.117 -46.1521 132.802 -46.1813 132.273C-46.1974 131.983 -46.0268 131.927 -45.7856 131.97C-45.29 132.058 -45.0601 132.445 -44.8113 132.787ZM-47.4313 39.7138C-46.9258 41.1352 -46.5984 42.6018 -46.1734 44.043C-47.0064 42.7224 -47.4572 41.2869 -47.4313 39.7138ZM-43.6843 135.735C-41.5756 138.008 -39.3749 140.192 -37.1399 142.342C-39.856 140.665 -41.9539 138.381 -43.6843 135.735ZM-2.12386 158.237C2.22982 160.207 5.85091 163.157 9.30709 166.336C5.70156 163.627 2.10074 160.915 -1.74837 158.553C-1.88594 158.468 -1.99901 158.343 -2.12386 158.237ZM47.6682 48.823C46.4028 44.4995 43.8907 40.8332 42.6262 36.6364C44.2167 37.7581 48.3236 47.4148 47.6682 48.823ZM-3.3978 5.8407C-2.54884 5.8407 -1.69186 5.76721 -0.851837 5.8539C2.59021 6.20772 5.98703 6.86069 9.38338 7.50378C14.4226 8.45781 19.0707 10.5991 23.8394 12.3564C26.0396 13.1677 28.1441 14.2739 29.6348 16.2253C34.5609 22.6755 38.5268 29.6194 41.3423 37.2837C43.5895 43.4003 46.5134 49.2654 48.9152 55.3297C50.6301 59.6584 51.7245 64.194 52.2149 68.8482C52.6234 72.7256 52.394 76.6143 52.4218 80.4997C52.4444 83.6948 52.3878 86.8877 52.589 90.0932C52.7303 92.3509 52.2239 94.7027 52.0302 97.0155C51.6887 101.088 51.7504 105.11 52.988 109.06C54.1301 112.705 55.6782 116.175 57.6004 119.454C61.4914 126.092 66.369 132.006 71.4854 137.715C74.2335 140.781 76.9288 143.878 79.201 147.314C83.3823 153.638 85.3884 160.623 85.2155 168.185C85.0802 174.097 82.4905 178.688 77.39 181.806C68.5244 187.227 59.164 188.962 49.1158 185.661C41.3338 183.104 34.4049 179.041 28.0664 173.882C24.1132 170.663 20.5039 167.061 16.5615 163.833C11.192 159.436 5.73687 155.17 -0.587067 152.18C-5.48113 149.866 -10.6254 148.238 -15.7993 146.708C-20.2161 145.402 -24.428 143.638 -28.4071 141.324C-32.9996 138.652 -36.8779 135.235 -39.5624 130.579C-39.8814 130.024 -39.8936 130.031 -40.6201 130.016C-40.8406 130.011 -40.8543 129.828 -40.9282 129.681C-41.6 128.341 -42.0387 126.942 -42.0566 125.427C-42.0688 124.403 -41.6735 122.939 -42.0241 122.446C-43.1496 120.865 -42.302 119.333 -42.0947 118.001C-41.837 116.348 -41.4041 114.633 -40.8976 112.977C-39.627 108.82 -38.1669 104.737 -36.0963 100.918C-34.1977 97.415 -32.3584 93.8806 -31.8105 89.9128C-31.6522 88.7628 -30.2662 87.4497 -31.7455 86.2215C-31.746 86.221 -31.6418 86.1066 -31.5976 86.0382C-30.8122 84.8279 -30.4155 83.4616 -30.3557 82.0582C-30.2977 80.7173 -29.8186 79.4641 -29.7611 78.1389C-29.6683 75.9999 -28.8749 73.9209 -29.3333 71.724C-29.5416 70.7243 -29.493 69.6638 -29.4949 68.6306C-29.4992 66.331 -30.2784 64.1398 -30.399 61.8346C-30.4442 60.971 -31.1985 59.8737 -31.614 58.8848C-33.1038 55.3401 -35.7463 52.6401 -38.0647 49.6823C-40.246 46.9003 -42.6968 44.173 -42.9263 40.3587C-43.0186 38.82 -43.4765 37.1961 -42.6827 35.7521C-40.5471 31.8714 -39.4239 27.472 -36.494 23.9927C-34.2137 21.2847 -32.6826 18.0038 -29.9043 15.651C-27.1873 13.35 -24.5933 10.8728 -21.4547 9.17297C-19.9141 8.33861 -18.3518 7.48447 -16.5432 7.08542C-12.1975 6.12621 -7.82592 5.77992 -3.3978 5.8407ZM32.5695 184.933C32.8093 185.005 33.0689 185.042 33.2861 185.157C38.7112 188.042 44.3652 190.327 50.3616 191.73C50.5784 191.781 50.8756 191.774 51.0043 192.107C50.5986 192.049 50.2175 192.004 49.8396 191.938C44.8608 191.072 40.2456 189.172 35.7628 186.922C34.6472 186.362 33.4261 185.927 32.5922 184.907C31.2556 184.813 30.4396 183.685 29.283 183.221C29.0804 183.14 28.8618 182.772 29.1708 182.459C29.2735 182.355 29.4154 182.288 29.479 182.41C30.1522 183.694 31.7851 183.795 32.5695 184.933ZM17.4119 165.404C18.9638 166.369 20.1986 167.688 21.4311 169.008C20.1039 167.794 18.5002 166.883 17.4369 165.377C16.3038 164.976 15.5797 164.056 14.7708 163.245C15.7988 163.781 16.6812 164.499 17.4119 165.404ZM51.6573 41.953C50.7565 39.4891 49.8938 37.0397 48.0706 35.0105C46.9686 33.7847 46.09 32.3086 45.363 30.8217C45.0996 30.2818 44.6158 30.1188 44.3402 29.6364C43.6971 28.5099 43.4611 27.2374 42.6375 26.143C40.7813 23.6762 38.9491 21.1985 37.0113 18.7892C35.7327 17.1996 34.536 15.5295 33.2075 13.9771C30.7317 11.0853 27.5719 9.14569 24.0643 7.76482C20.0112 6.16911 15.9963 4.43771 11.8532 3.11432C4.13235 0.648438 -3.74818 -0.344681 -11.9039 0.628189C-16.8172 1.21428 -21.6025 2.1424 -25.8134 4.65161C-32.5477 8.66515 -38.0994 14.0101 -42.0206 20.9055C-42.1676 21.1637 -42.3565 21.3983 -42.5332 21.6385C-44.136 23.8185 -45.5828 26.0704 -46.3187 28.7253C-46.6834 30.0383 -47.2219 31.299 -47.8164 32.5381C-49.5798 36.2124 -49.2411 39.9131 -47.8169 43.5987C-46.3833 47.3083 -43.989 50.4578 -41.3125 53.2502C-37.7362 56.9815 -36.058 61.3088 -35.5238 66.3103C-35.0267 70.9622 -35.8432 75.4676 -36.6719 79.9899C-37.1803 82.7649 -37.6349 85.5511 -38.1809 88.3185C-39.0619 92.7796 -41.1142 96.7559 -43.2215 100.742C-45.9649 105.933 -48.0619 111.397 -49.3297 117.159C-50.3907 121.98 -49.8677 126.714 -48.2258 131.26C-47.2798 133.879 -46.0502 136.45 -44.0573 138.571C-42.1172 140.637 -40.1597 142.66 -37.846 144.31C-32.2853 148.276 -26.155 151.059 -19.6553 153.084C-12.2346 155.397 -5.0075 158.132 1.33292 162.79C6.031 166.242 10.501 169.967 14.7944 173.907C20.6406 179.273 26.7639 184.268 33.8402 187.962C40.6998 191.542 47.8642 194.33 55.7052 194.258C67.5069 194.15 77.6116 189.98 84.7699 180.273C90.0635 173.093 90.9214 164.865 89.1919 156.276C88.8795 154.725 88.5634 153.174 88.2011 151.635C87.2697 147.68 85.6613 144.043 83.2981 140.707C81.921 138.763 80.436 136.902 79.058 134.979C77.4401 132.722 75.6385 130.653 73.7762 128.637C71.6194 126.302 69.7085 123.796 67.8923 121.201C67.2596 120.298 66.2565 119.749 65.6445 118.777C63.3308 115.1 60.9253 111.477 59.2735 107.433C58.3816 105.249 57.4724 103.12 57.2966 100.66C57.1897 99.1516 57.2816 97.6482 57.1501 96.1491C56.9532 93.9037 57.3405 91.6908 57.6976 89.4963C57.8347 88.654 56.8133 87.9722 57.0333 87.9133C58.2238 87.5972 57.3866 86.9282 57.4111 86.442C57.4253 86.1546 57.2429 85.839 57.3079 85.5751C58.4132 81.0905 57.9355 76.5102 58.0297 71.9808C58.1173 67.776 58.4848 63.4916 57.348 59.3701C56.9329 57.8672 56.6305 56.3238 56.1928 54.8214C55.6675 53.0193 54.6984 51.3289 54.5368 49.4487C54.3092 46.8005 52.9708 44.581 52.0068 42.2136C51.9541 42.0836 51.7586 42.011 51.6276 41.9078C51.751 43.3179 52.9057 44.369 52.9463 45.8191C51.9569 43.7165 50.7216 41.7246 50.209 39.4066C50.6919 40.2556 51.1743 41.1041 51.6573 41.953Z" fill="#7204FF"/>
<path fill-rule="evenodd" clip-rule="evenodd" d="M8.19067 144.814C10.9548 146.436 13.1959 148.659 15.2938 151.045C12.9349 148.957 10.616 146.825 8.19067 144.814ZM24.1698 158.697C24.078 158.795 23.9861 158.893 23.8942 158.991C21.4722 156.778 18.8485 154.791 16.7454 152.221L24.1698 158.697ZM-31.5105 41.441C-32.93 40.0319 -33.5764 35.6622 -32.645 34.7623C-32.3793 36.9752 -32.3722 39.2715 -31.5105 41.441ZM-20.765 129.472C-24.0954 127.215 -27.0677 124.626 -28.5065 120.685C-26.2164 123.872 -23.7006 126.853 -20.765 129.472ZM28.7163 162.711C34.2845 167.073 40.1237 170.945 46.6573 173.692C42.3771 173.126 30.5047 165.28 28.7163 162.711ZM26.7571 58.6805C25.4267 56.0229 24.6022 53.1768 23.8187 50.3373C23.0173 47.4333 21.9356 44.6301 20.9971 41.7793C20.11 39.0845 18.8281 36.5192 17.72 33.8969C22.4623 41.5452 24.2309 50.2436 26.7571 58.6805ZM-20.8839 101.339C-20.8617 101.502 -20.898 101.738 -20.8047 101.814C-20.636 101.951 -20.5489 101.741 -20.4368 101.618C-20.1192 101.269 -20.2676 100.743 -19.8323 100.394C-19.029 99.7505 -18.4764 98.9411 -18.0764 97.9187C-17.7353 97.0471 -16.8044 96.4135 -16.1698 95.6455C-16.028 95.4745 -15.8503 95.1852 -16.0331 94.9421C-16.3728 94.4913 -16.1005 94.3433 -15.7264 94.2373C-15.2643 94.1073 -15.0197 93.7577 -14.8629 93.3549C-14.2966 91.9038 -13.5428 90.5258 -13.3741 88.9273C-13.2653 87.896 -13.099 86.6635 -12.7169 85.9111C-11.6531 83.8146 -11.6144 81.6041 -11.7153 79.5043C-11.8067 77.6028 -12.1722 75.6552 -12.0846 73.7504C-12.0092 72.1048 -12.837 70.7635 -13.0674 69.2309C-13.3463 67.3756 -14.6325 65.7563 -14.8859 63.828C-15.0424 62.6436 -16.2927 61.7437 -16.2819 60.8057C-16.2574 58.6371 -18.1782 57.4702 -18.5174 55.5145C-18.6253 54.8926 -18.8802 53.9612 -19.421 53.3695C-20.5324 52.1549 -20.8575 50.4739 -22.0084 49.2641C-23.4576 47.7404 -24.21 45.7005 -25.7553 44.1882C-26.6834 43.2793 -27.409 42.1072 -28.2212 41.0613C-28.9571 40.1153 -28.8911 38.6482 -29.1342 37.3973C-29.4866 35.5868 -28.4478 34.1767 -27.979 32.5862C-26.8587 28.7861 -24.5238 25.6446 -21.7903 23.11C-16.452 18.1593 -10.0583 16.5325 -2.94947 19.1237C-2.22771 19.3866 -1.50689 19.6514 -0.778996 19.8959C3.48941 21.3291 7.17692 23.6979 10.602 26.6052C15.0843 30.41 17.2067 35.7159 19.69 40.7381C20.5588 42.4944 20.8966 44.648 21.5524 46.5984C22.0014 47.9336 22.4848 49.2669 22.7938 50.6374C23.1052 52.0192 23.5297 53.3619 23.9434 54.7089C24.3561 56.0535 24.9375 57.3524 25.2644 58.7149C25.5556 59.9266 26.1516 61.0093 26.4027 62.2653C26.7381 63.9444 27.286 65.6169 27.7421 67.2927C29.3816 73.3193 30.6079 79.4251 31.3467 85.6308C31.7561 89.07 32.0543 92.5418 32.7666 95.9226C35.0676 106.849 40.0993 116.504 47.0295 125.18C50.1272 129.058 53.4133 132.787 56.6561 136.547C61.2995 141.93 63.8191 148.338 65.7172 155.06C66.8979 159.24 66.6934 163.369 65.1594 167.402C64.2845 169.701 62.9814 171.62 60.2319 172.074C57.6718 172.496 55.1739 171.89 52.7533 171.442C51.314 171.176 49.746 170.491 48.3016 169.792C44.8364 168.116 41.3218 166.532 38.309 164.092C37.5914 163.511 36.6982 163.434 35.9811 162.854C35.0634 162.112 34.4222 161.11 33.421 160.443C32.8463 160.061 32.1575 160.024 31.6275 159.534C28.2664 156.429 24.4673 153.817 21.4337 150.337C20.3807 149.128 19.0799 148.138 17.9327 147.007C13.6252 142.764 8.61245 139.589 2.96552 137.515C-3.95721 134.971 -10.4178 131.562 -16.4614 127.397C-18.7723 125.805 -21.2476 124.303 -22.9045 121.882C-23.8651 120.477 -25.1004 119.045 -25.2503 117.437C-25.4726 115.057 -25.7148 112.572 -24.9044 110.201C-24.7089 109.629 -25.0576 108.832 -24.936 108.636C-24.4672 107.886 -24.1846 107.037 -23.6767 106.317C-22.5799 104.761 -21.0676 103.431 -20.8839 101.339ZM-22.1975 55.4457C-21.8328 55.5833 -21.7424 55.948 -21.6166 56.2396C-20.419 59.0126 -19.1243 61.7518 -18.3229 64.6765C-17.8542 66.3881 -17.0316 68.0192 -17.0584 69.8542C-17.8862 66.6086 -19.3288 63.5821 -20.3535 60.4095C-20.8972 58.7257 -21.9143 57.212 -22.1702 55.4208C-23.634 53.4901 -24.3524 51.1712 -25.5359 49.0945C-24.2841 51.1396 -22.8128 53.0722 -22.1975 55.4457ZM32.1374 63.1609C32.0865 63.4733 32.1355 63.7508 31.8241 63.9077C31.7689 63.4271 31.3821 62.9682 32.0182 62.547C32.388 62.3025 32.0403 61.9049 31.9456 61.609C31.0933 58.9481 30.2646 56.2759 29.4416 53.6107C28.6586 51.0732 27.7234 48.5706 27.1364 45.9719C26.8419 44.6673 26.2092 43.4947 25.73 42.2636C25.5096 41.6983 25.3239 41.1588 25.3239 40.5445C25.3235 39.2951 25.2368 39.2626 24.0816 39.9193C23.985 39.974 23.8389 39.941 23.683 39.9509C23.683 39.8119 23.6401 39.6743 23.6891 39.5919C24.426 38.3688 24.27 36.9022 23.4046 35.7239C22.8336 34.9466 22.3139 34.1602 22.067 33.1389C21.6963 31.6016 20.6423 30.3917 19.4184 29.3807C19.3072 29.2888 19.0542 29.3312 19.0424 29.1173C18.9736 27.85 17.9536 27.2422 17.1843 26.4875C16.4498 25.7671 15.5443 25.2409 14.8541 24.4499C13.673 23.0949 12.3444 21.9731 10.7256 21.0709C9.9784 20.6544 9.21941 19.8634 8.3874 19.5374C5.3133 18.3323 2.29903 16.9839 -0.814644 15.8607C-6.07571 13.9626 -11.2553 14.5195 -16.4768 15.7863C-19.5485 16.5316 -22.3253 17.9059 -24.8638 19.7932C-25.8343 20.515 -26.6197 21.3936 -27.4173 22.2855C-30.465 25.6913 -32.6016 29.5903 -33.6748 34.0227C-34.3622 36.8612 -33.9287 39.6366 -32.5069 42.192C-32.1328 42.8643 -31.8449 43.7458 -30.5828 43.5936C-30.033 43.5272 -29.4874 44.55 -29.061 45.1992C-26.0463 49.7885 -23.595 54.6632 -21.621 59.7844C-19.5429 65.175 -17.7295 70.6222 -17.0294 76.409C-16.5211 80.6096 -17.0888 84.6382 -18.1125 88.6917C-18.9323 91.9383 -20.6265 94.6524 -22.5609 97.2955C-24.0106 99.2756 -25.3071 101.367 -26.7384 103.361C-27.2458 104.068 -26.6055 104.519 -26.4552 105.428C-27.2387 104.362 -27.3673 104.576 -27.7009 105.453C-28.0345 106.328 -28.646 107.146 -29.1289 107.995C-30.1616 109.813 -30.7519 111.794 -30.7717 113.836C-30.7792 114.611 -31.1839 115.257 -31.0793 115.99C-30.9479 116.915 -30.8834 117.862 -30.6219 118.752C-30.1602 120.324 -29.8704 121.981 -28.3336 123.049C-27.9091 123.344 -28.1612 124.258 -27.6788 124.776C-25.6143 126.993 -23.6704 129.355 -21.0886 130.999C-14.9461 134.91 -8.51238 138.242 -1.77291 141.049C2.91951 143.003 7.39945 145.472 11.0978 149.104C16.5402 154.447 22.2649 159.477 28.1545 164.317C33.7378 168.905 39.7201 172.842 46.5807 175.306C49.4612 176.34 52.4146 176.954 55.4671 177.164C59.8241 177.465 63.0866 175.482 65.618 172.188C70.4791 165.862 71.6201 158.743 69.7498 151.087C68.4923 145.938 66.6403 141.001 64.0284 136.379C62.8021 134.21 61.6337 132.015 59.6111 130.364C58.6462 129.577 58.1294 128.248 57.3879 127.179C54.8518 123.526 51.6613 120.393 49.137 116.718C48.0129 115.082 47.0627 113.356 46.0031 111.69C43.6908 108.054 42.1121 104.042 40.3736 100.129C38.8481 96.6957 38.2964 92.9441 37.7466 89.226C37.1549 85.22 36.5283 81.2178 35.8461 77.2264C35.4522 74.9207 35.1775 72.5401 34.3573 70.38C33.7877 68.879 33.7665 67.2804 33.0848 65.8256C32.6933 64.9912 33.114 63.8483 32.1374 63.1609Z" fill="#7204FF"/>
<path fill-rule="evenodd" clip-rule="evenodd" d="M17.9465 79.5926C18.0747 79.5252 18.2033 79.4574 18.3314 79.39C18.7432 80.4826 19.9135 81.2594 19.375 82.7515C18.8987 81.6985 18.4228 80.6456 17.9465 79.5926ZM-6.58799 120.68C-9.25975 120.179 -11.9998 117.663 -11.7214 115.958C-10.4277 118.071 -8.55259 119.424 -6.58799 120.68ZM16.0486 136.828C15.9704 136.932 15.8917 137.036 15.8135 137.139C12.2537 134.054 8.69339 130.968 5.13403 127.882C5.20941 127.794 5.28526 127.706 5.36112 127.617L16.0486 136.828ZM26.3293 146.646C29.6758 149.117 33.115 151.445 36.8114 153.381C40.5479 155.339 44.3278 157.2 48.1609 158.936C40.3732 155.756 32.6778 152.404 26.3293 146.646ZM2.28247 46.7226C3.18279 48.1901 4.27534 49.4843 5.00982 51.089C6.67243 54.7195 8.60216 58.2294 10.1842 61.9051C12.5422 67.3815 15.0236 72.7999 17.9328 78.0115C18.1147 78.338 18.2838 78.6664 17.8009 79.1398C12.0145 68.5362 7.90066 57.2659 2.28247 46.7226ZM26.6673 140.989C25.1587 140.314 24.4129 138.855 23.3303 137.742C21.9084 136.916 21.1221 135.427 19.8567 134.429C17.6749 132.708 15.4351 131.042 13.3942 129.163C9.17056 125.274 4.50688 122.098 -0.664675 119.598C-2.58452 118.669 -4.82425 118.471 -6.46472 116.865C-7.46822 115.883 -8.68796 115.09 -8.77842 113.552C-8.91269 111.274 -8.55652 109.072 -7.45879 107.024C-5.42918 103.238 -2.69523 99.9283 -0.305677 96.3859C2.17763 92.7045 4.39664 88.9586 4.96199 84.3741C5.5019 79.9888 5.17682 75.6422 4.91912 71.288C4.86682 70.4061 4.26991 69.5651 4.2374 68.5437C4.19264 67.1172 4.17804 65.5313 3.27206 64.3625C1.63772 62.2528 1.09592 59.6795 0.0259953 57.338C-0.324522 56.5701 -0.109688 55.4384 -0.783871 54.8509C-1.68372 54.0665 -1.92588 53.0338 -2.35649 52.0477C-2.52421 51.6628 -2.75742 51.276 -3.05282 50.9825C-4.02758 50.0134 -4.64146 48.7338 -5.32035 47.6281C-6.65317 45.4566 -8.13674 43.5344 -10.009 41.8309C-10.5484 41.3395 -11.4007 41.3993 -11.7248 40.6333C-12.049 39.8686 -12.645 39.3028 -13.2697 38.7756C-13.9076 38.2371 -14.2336 37.5328 -14.4871 36.7088C-14.0192 36.5745 -13.7172 36.7653 -13.4091 36.8784C-11.4709 37.5884 -9.81348 38.8406 -7.9417 39.6919C-4.65842 41.1854 -1.88866 43.3521 0.304432 46.2486C1.94537 48.4158 3.05911 50.868 4.23363 53.2868C6.56099 58.0805 8.92605 62.8591 11.1088 67.7193C12.3314 70.4419 13.6029 73.1367 14.956 75.7911C17.2042 80.2008 19.2074 84.7236 21.1598 89.2639C22.7235 92.9 24.0177 96.6488 24.8647 100.536C25.6035 103.929 26.8915 107.145 28.1508 110.368C30.5484 116.503 32.9874 122.613 36.9402 127.978C40.4915 132.799 44.0886 137.587 47.2979 142.651C49.6931 146.432 51.7722 150.345 52.7927 154.74C52.902 155.211 53.2515 155.83 52.8506 156.177C52.5109 156.471 51.9569 156.084 51.5277 155.915C47.0275 154.134 42.6955 152.013 38.5039 149.587C37.7468 149.149 37.074 148.158 35.9155 148.643C35.752 148.711 35.4104 148.482 35.5098 148.285C35.8608 147.591 35.1796 147.599 34.9186 147.427C33.2701 146.337 31.6428 145.221 30.0349 144.071C28.777 143.172 27.903 141.89 26.6673 140.989ZM-6.55059 52.1358C-6.18736 52.1612 -6.08324 52.4557 -5.94991 52.7172C-4.26328 56.0273 -3.01243 59.5297 -1.4808 62.9067C-0.746313 64.5278 -0.997425 66.4726 0.236456 67.9143C0.447521 68.1612 0.381092 68.4043 0.0866375 68.5305C-0.299686 68.6964 -0.507452 68.4387 -0.550797 68.123C-0.718517 66.892 -1.30648 65.8121 -1.71495 64.6659C-2.76745 61.7133 -3.66918 58.7184 -5.07738 55.8869C-5.66252 54.7096 -6.31126 53.47 -6.52091 52.1075C-7.56163 50.7285 -8.3046 49.1931 -8.8855 47.5734C-8.15666 49.1192 -6.75883 50.322 -6.55059 52.1358ZM39.1591 123.897C39.6161 123.124 39.4611 122.638 39.1539 121.889C38.4053 120.062 36.8765 118.627 36.5877 116.59C36.485 115.862 35.9201 115.313 35.5743 114.701C34.6938 113.143 34.5247 111.331 33.7327 109.813C32.9812 108.374 32.659 106.797 31.8929 105.389C31.4859 104.642 31.6291 103.711 31.0991 102.987C30.7415 102.499 29.8577 99.4605 29.755 98.8758C29.4973 97.4031 29.1976 95.9374 28.9003 94.4717C28.8495 94.2201 28.7364 93.9615 28.3939 94.0157C28.0405 94.0713 27.8695 93.9106 28.0052 93.5968C28.5131 92.4209 27.9067 91.3675 27.4549 90.4441C26.141 87.7605 24.9999 85.0021 23.8461 82.2549C23.6176 81.7103 22.5561 81.8582 22.9345 80.7732C23.1253 80.2253 22.5086 79.276 22.0817 78.5674C21.6662 77.8758 21.3868 77.1041 21.0104 76.3871C18.2378 71.1015 15.6899 65.7108 13.2759 60.251C11.937 57.2226 10.3389 54.3101 8.92834 51.3118C8.57217 50.5542 8.33896 49.7038 8.09963 48.8935C7.87961 48.1491 7.55689 47.0816 6.64762 46.6137C6.47895 46.527 6.37389 46.4502 6.31877 46.2774C5.20691 42.7759 2.21997 40.9447 -0.443783 38.8939C-2.3509 37.4253 -4.67686 36.558 -6.84074 35.5432C-8.17968 34.9156 -9.41121 33.9169 -10.9711 33.6964C-12.5348 33.475 -14.0881 33.1927 -15.6734 33.1607C-17.2112 33.1296 -18.633 33.4896 -19.9065 34.3734C-20.5736 34.836 -20.6749 35.424 -20.3837 36.167C-19.6625 38.0095 -18.5746 39.552 -16.8993 40.6474C-16.2576 41.0676 -15.5717 41.4313 -15.1443 42.1173C-14.8395 42.6068 -14.3232 41.9906 -13.7569 42.5474C-11.7532 44.5182 -10.5052 46.9148 -9.21993 49.3237C-6.55807 54.3134 -4.57651 59.589 -2.66844 64.8939C-1.84303 67.1897 -1.41336 69.583 -1.03787 71.9895C-0.800426 73.5089 -0.640715 75.0293 -0.538952 76.5614C-0.49231 77.2718 -0.206335 77.8556 0.66572 77.4231C1.18584 77.1649 1.34603 77.5432 1.59007 77.8108C1.76345 78.0011 1.72811 78.2188 1.56133 78.379C1.25698 78.6701 0.992683 78.3667 0.754765 78.2508C-0.221411 77.7759 -0.540363 78.0591 -0.490894 79.1266C-0.353327 82.0684 -0.278891 85.011 -1.04306 87.9028C-1.42326 89.344 -1.95704 90.7267 -2.6529 92.0327C-4.68675 95.8521 -7.31375 99.2946 -9.63688 102.931C-11.3362 105.593 -13.0841 108.255 -13.4412 111.503C-13.5246 112.26 -14.1248 113.181 -13.0789 113.795C-13.021 113.828 -12.9701 113.936 -12.9748 114.005C-13.1774 116.976 -13.0855 117.051 -11.0658 119.134C-9.75513 120.485 -8.1566 121.426 -6.52791 122.174C-0.535181 124.93 4.51483 128.939 9.45836 133.23C15.4761 138.453 20.9586 144.281 27.2104 149.209C34.0597 154.606 41.894 158.304 50.2099 160.859C54.5994 162.207 57.8515 158.932 56.8947 154.376C55.9392 149.828 54.2144 145.571 51.9234 141.521C49.2931 136.872 46.2793 132.467 43.363 128.005C42.563 126.78 41.8846 125.452 40.9089 124.322C40.4029 123.737 40.0274 123.222 39.1591 123.897Z" fill="#7204FF"/>
<path fill-rule="evenodd" clip-rule="evenodd" d="M26.6663 140.989C25.9102 139.541 24.7201 138.538 23.3293 137.742C24.412 138.855 25.1578 140.314 26.6663 140.989Z" fill="#7204FF"/>
</svg>
