<svg width="76" height="159" viewBox="0 0 76 159" fill="none" xmlns="http://www.w3.org/2000/svg">
<path fill-rule="evenodd" clip-rule="evenodd" d="M53.9887 53.0349C54.2206 53.5577 54.37 53.8938 54.5142 54.2185C54.343 54.4421 54.1848 54.3088 54.0147 54.2611C53.6656 54.1625 53.5458 53.4939 53.1231 53.7611C52.6116 54.0842 53.2693 54.4711 53.2299 54.8539C52.6702 54.9841 52.5214 54.2927 52.0649 54.2735C51.3575 55.3617 51.7288 56.2378 52.3876 57.2139C54.1775 59.8664 55.7289 62.6543 56.7735 65.7052C57.1677 66.8572 58.6434 67.42 58.6719 68.7571C58.7082 70.4532 59.4997 71.9257 60.3892 73.1384C61.9256 75.2328 62.2539 77.6971 63.1683 79.9736C63.4256 80.6141 63.0729 81.4031 63.7057 81.928C63.91 82.0976 64.2311 82.484 64.3644 82.1583C64.8219 81.0452 65.7135 81.5815 66.4516 81.3968C67.8214 81.054 68.0911 79.7106 68.2249 78.5291C68.4355 76.667 67.8982 74.8661 67.1424 73.2064C64.2503 66.851 60.8866 60.7539 56.7253 55.1299C56.0915 54.273 55.523 53.1978 53.9887 53.0349Z" fill="#F3FF6D"/>
<path fill-rule="evenodd" clip-rule="evenodd" d="M73.1502 27.7996C73.4676 28.7887 73.7741 29.824 74.131 30.8421C76.3909 37.2966 79.3224 43.4486 82.4978 49.4944C83.7151 51.8118 85.1182 54.0359 86.0393 56.509C86.3028 57.2175 86.7764 57.7766 87.6213 57.023C87.8205 56.8451 88.1161 56.7647 88.3796 56.6713C90.1322 56.051 90.8169 54.7076 90.2671 52.8845C89.7038 51.0141 88.6618 49.3761 87.6519 47.734C83.379 40.7883 79.3598 33.712 76.2918 26.133C75.9028 25.1725 75.7902 25.1735 75.1082 25.9048C75.034 25.9842 74.8836 26.0418 74.7757 26.0319C73.5034 25.9183 73.3877 26.8509 73.1502 27.7996Z" fill="#F3FF6D"/>
<path fill-rule="evenodd" clip-rule="evenodd" d="M48.9345 131.665C52.2654 131.659 53.2691 130.2 52.142 127.438C51.2608 125.278 49.7618 123.498 48.3147 121.715C44.9365 117.553 41.4204 113.51 37.6771 109.664C36.7616 108.724 35.6501 108.387 34.509 108.038C34.1106 107.917 33.2226 107.677 33.2564 108.024C33.3269 108.733 32.6147 109.378 33.2558 110.138C36.1189 113.528 38.674 117.158 41.3213 120.716C42.4883 122.285 43.7798 123.764 44.9038 125.362C45.6637 126.443 46.4407 127.611 45.6699 129.067C45.5776 129.24 45.6253 129.696 45.7073 129.723C47.0226 130.162 47.8178 131.563 48.9345 131.665Z" fill="#F3FF6D"/>
<path fill-rule="evenodd" clip-rule="evenodd" d="M14.8846 56.2398C13.174 54.3181 12.1097 51.981 10.4229 50.0712C9.92603 49.5089 9.33058 49.0208 8.90579 48.4109C8.20453 47.4031 7.48305 48.1713 7.01935 48.4887C6.56913 48.7963 6.35803 49.511 6.84092 50.1874C8.81294 52.9493 10.3991 55.9727 11.731 59.0495C12.6802 61.243 14.256 63.1642 14.5848 65.7166C14.7098 66.6829 15.3701 67.7981 15.7363 68.8801C16.2259 70.3267 17.2316 69.129 18.0076 69.0761C18.13 69.0678 18.2384 68.7079 18.3504 68.7099C18.8281 68.7167 19.1093 69.933 19.6689 69.0891C20.4283 67.9438 21.239 66.8634 20.7078 65.1705C19.8639 62.4832 18.5678 60.0589 17.1492 57.6797C15.2259 54.454 13.452 51.1148 10.7149 48.4529C10.5132 48.2568 10.328 48.0416 10.1122 47.8621C9.88972 47.6769 9.59044 47.5188 9.35185 47.7465C9.04842 48.0364 9.20921 48.387 9.47478 48.6049C11.7959 50.5053 12.952 53.2465 14.5786 55.647C14.702 55.8296 14.7835 56.0417 14.8846 56.2398Z" fill="#F3FF6D"/>
<path fill-rule="evenodd" clip-rule="evenodd" d="M72.1392 103.979C71.4234 103.304 70.6153 102.701 70.0163 101.935C69.3171 101.042 68.5385 100.846 67.5536 101.235C66.968 101.467 67.0925 102.082 67.149 102.473C67.2947 103.481 67.8912 104.257 68.8653 104.616C69.0982 104.702 69.4488 104.526 69.4483 104.947C69.4431 107.004 71.2476 108.1 72.023 109.748C72.2611 110.253 72.7046 110.733 73.0168 111.251C73.9287 112.764 74.6745 114.408 76.6071 114.987C77.0573 115.122 77.771 115.525 77.5278 116.209C76.7855 118.296 78.2472 119.69 79.0765 121.237C80.4396 123.779 82.1689 126.114 83.4329 128.718C83.5756 129.012 83.6638 129.429 84.0735 129.328C84.5854 129.2 83.907 128.746 84.2623 128.478C84.9003 128.818 85.4605 129.735 86.35 128.653C86.6674 128.267 87.1337 128.92 87.3619 129.33C87.5357 129.642 87.7266 129.935 88.1182 129.706C88.5917 129.428 88.1835 129.138 88.0585 128.884C85.7805 124.241 82.9666 119.924 80.0465 115.67C77.4749 111.925 74.9038 108.178 72.3327 104.433C72.2689 104.283 72.204 104.131 72.1392 103.979Z" fill="#F3FF6D"/>
<path fill-rule="evenodd" clip-rule="evenodd" d="M47.2397 87.5003C45.6629 85.0604 44.0742 82.6237 42.3195 80.2979C44.3211 81.799 46.734 85.2824 47.2397 87.5003ZM44.1542 91.2041C44.6448 91.3473 43.3938 89.6419 44.7309 90.6891C44.7667 90.7171 44.8373 90.7601 44.8534 90.7477C45.7346 90.0636 46.5105 90.1019 47.3171 90.9381C47.5287 91.1575 49.1708 89.3172 49.2061 88.7736C49.259 87.9531 49.0515 87.1761 48.6905 86.4577C46.6532 82.4006 43.787 79.0297 40.1655 76.302C38.3916 74.9653 36.5306 75.1111 34.6732 76.1064C33.6758 76.6412 33.6805 77.2838 34.5098 78.0841C35.3828 78.926 36.2132 79.8186 36.9948 80.746C37.8968 81.816 38.652 82.9908 39.6448 84.009C40.9487 85.3457 41.3979 87.2414 42.3461 88.8286C42.8704 89.7046 43.3321 90.5937 44.1542 91.2041Z" fill="#F3FF6D"/>
<path fill-rule="evenodd" clip-rule="evenodd" d="M2.827 93.6423C3.03447 94.3503 3.15947 94.7762 3.34983 95.4256C3.03343 95.1807 2.84048 95.1066 2.78239 94.9733C2.31039 93.8944 1.44316 94.1735 0.760059 94.5225C0.0287218 94.896 -0.161116 95.7394 0.131419 96.4665C0.608604 97.6533 1.16048 98.8286 1.83373 99.9142C2.76268 101.412 3.81353 102.86 4.44632 104.496C5.10763 106.204 6.07186 107.867 5.65951 109.875C5.46448 110.824 6.25651 111.381 7.1227 110.993C7.59315 110.781 8.01639 110.805 8.48164 110.828C11.4298 110.976 12.9521 108.885 11.8069 106.07C10.1922 102.103 7.5864 98.7487 4.87267 95.4868C4.35399 94.8633 3.99662 94.0339 2.827 93.6423Z" fill="#F3FF6D"/>
<path fill-rule="evenodd" clip-rule="evenodd" d="M45.7123 25.5244C45.8285 25.4383 45.9442 25.3522 46.0598 25.2661C46.7268 26.3226 47.4001 27.375 48.051 28.4414C48.1268 28.5659 48.2751 28.7905 48.05 28.9264C47.8934 29.0208 47.6247 29.0478 47.5713 28.8496C47.2326 27.5867 46.0474 26.7832 45.7123 25.5244ZM50.6267 38.3493C51.0391 38.9452 50.745 39.9639 52.0443 40.0459C52.9836 40.1055 52.814 39.6517 52.8145 39.1683C53.6221 39.2409 53.299 40.2004 54.0142 40.3908C54.3089 39.0925 53.8301 37.8498 53.8882 36.6024C53.8794 36.5655 53.8737 36.5251 53.87 36.4815C52.8669 35.6205 52.6356 34.3321 52.0796 33.2252C51.8503 32.7678 51.7699 32.2221 51.4883 31.8077C49.2216 28.4731 47.3772 24.8724 44.9358 21.6416C43.0224 19.1094 41.3279 16.4133 39.2843 13.9739C38.8143 13.4132 38.3989 12.7986 37.3906 12.2109C38.1686 13.6197 38.7609 14.6913 39.3527 15.7629C39.3382 15.7203 39.3252 15.6768 39.3138 15.6316C40.8735 16.8666 41.5089 18.7733 42.8445 20.1965C42.388 20.5829 42.2511 20.1799 42.0317 20.1343C41.6562 20.057 41.4243 20.2925 41.2791 20.6156C41.2075 20.7738 41.0649 21.0072 41.3175 21.0721C42.4378 21.3599 42.1692 22.2894 42.2018 23.0264C42.2381 23.8413 42.6811 24.2889 43.318 24.653C44.2994 25.2137 44.8829 26.0089 44.7776 27.1961C44.9498 27.4508 45.1215 27.706 45.2937 27.9606C46.3663 28.4866 47.9006 31.0483 47.7916 32.1308C48.4037 32.1625 48.6454 33.3222 49.4784 32.6863C49.7253 32.0006 49.8653 31.6759 50.5064 32.5297C51.3166 33.6075 51.1864 35.0754 52.1636 36.0386C52.3088 36.1812 52.299 36.3918 52.0998 36.5137C51.841 36.6724 51.6008 36.5562 51.5614 36.3021C51.3892 35.2035 50.5121 34.4312 50.2466 33.386C50.134 32.9452 50.0152 32.5593 49.439 32.6464C49.0889 34.6822 50.6563 36.0728 51.1937 37.8109C51.2647 38.0412 52.1283 37.4208 51.815 38.1957C51.6625 38.5739 51.0873 38.7616 50.6267 38.3493Z" fill="#F3FF6D"/>
<path fill-rule="evenodd" clip-rule="evenodd" d="M18.5458 132.382C18.8332 133.174 18.6106 133.888 18.3575 134.575C18.2242 134.936 18.1236 135.209 18.5562 135.359C18.9509 135.496 19.1936 135.219 19.3337 134.917C19.6911 134.15 19.6024 133.294 19.3902 132.562C18.5816 129.768 17.0655 127.344 15.1957 125.132C14.6407 124.477 13.983 123.883 13.5483 123.155C12.7584 121.833 11.414 121.456 10.1323 121.037C9.53375 120.842 9.41912 121.645 9.29619 122.077C9.22617 122.324 9.40823 122.804 9.62866 122.948C11.7589 124.341 12.1017 126.937 13.5468 128.804C14.0229 129.419 13.8046 130.667 14.4197 131.483C14.9057 132.128 15.1676 132.935 16.0712 133.243C16.5925 133.419 16.1977 134.091 16.4332 134.489C16.5541 134.694 16.6282 134.941 16.8855 134.974C17.1417 135.007 17.4649 134.788 17.4187 134.624C17.108 133.523 18.4084 133.243 18.5458 132.382Z" fill="#F3FF6D"/>
<path fill-rule="evenodd" clip-rule="evenodd" d="M72.1397 103.979C72.2046 104.131 72.2694 104.283 72.3332 104.433C74.2041 106.082 75.7134 108.07 77.1782 110.049C79.1933 112.771 81.0154 115.646 82.7701 118.547C84.255 121.002 86.1493 123.207 87.1908 125.942C87.6135 127.052 88.3148 128.065 89.5388 128.823C89.8272 127.151 88.7629 126.081 88.1493 124.903C86.5331 121.799 84.4916 118.954 82.4838 116.099C78.8613 110.95 75.4582 105.625 70.9437 101.161C70.6853 100.906 70.4789 100.555 69.8575 100.745C70.2631 102.097 71.5598 102.806 72.1397 103.979Z" fill="#F3FF6D"/>
<path fill-rule="evenodd" clip-rule="evenodd" d="M17.3121 84.2608C17.8676 84.6679 17.213 85.7675 18.0636 85.5886C18.7888 85.4356 18.5268 84.5512 18.3448 83.99C17.2146 80.5149 14.9868 77.9433 11.7612 76.2591C11.2726 76.0039 10.5635 75.6144 10.1118 76.3369C9.71031 76.9775 10.3312 77.367 10.6854 77.768C12.1704 79.4506 13.5791 81.1684 13.95 83.4874C14.0428 84.0699 14.5154 84.28 14.9967 84.4771C15.1647 84.5461 15.3338 84.6586 15.4531 84.794C16.3956 85.8656 17.1067 85.9787 17.3121 84.2608Z" fill="#F3FF6D"/>
<path fill-rule="evenodd" clip-rule="evenodd" d="M46.3962 21.9033C46.5518 23.6342 48.0316 24.5896 48.8361 25.9371C49.4321 26.935 49.9181 28.0673 50.8704 28.8599C51.1074 29.057 51.2023 29.4916 51.5934 29.2717C51.9046 29.0964 51.9679 28.7416 51.7578 28.4081C50.4928 26.4023 49.2624 24.3722 47.751 22.5356C47.3942 22.102 46.8314 22.1139 46.3558 21.9376L46.3962 21.9033Z" fill="#F3FF6D"/>
<path fill-rule="evenodd" clip-rule="evenodd" d="M46.3579 21.9376C46.5348 21.5543 46.7402 21.198 46.4186 20.7607C44.5965 18.2809 42.8122 15.772 40.7002 13.5215C40.5368 13.3472 40.4465 12.9344 40.0772 13.1927C39.8433 13.3566 39.9014 13.6102 40.0617 13.813C42.1265 16.4235 44.1302 19.0786 46.0057 21.8297C46.0586 21.907 46.264 21.8811 46.3984 21.9034L46.3579 21.9376Z" fill="#F3FF6D"/>
<path fill-rule="evenodd" clip-rule="evenodd" d="M53.8702 36.4814C53.8733 36.5249 53.8796 36.5659 53.8879 36.6027C54.1373 37.234 54.682 37.7449 54.6353 38.499C54.6187 38.7677 54.5829 39.1495 54.9921 39.1142C55.3578 39.0825 55.3085 38.7428 55.2764 38.4534C54.9895 35.8802 54.115 33.4741 53.1404 31.1042C52.9729 30.6976 52.4828 30.2608 52.0351 30.4693C51.505 30.7162 51.9055 31.2401 52.0932 31.5472C53.0274 33.0747 53.4345 34.7806 53.8702 36.4814Z" fill="#F3FF6D"/>
<path fill-rule="evenodd" clip-rule="evenodd" d="M39.314 15.6317C39.3254 15.6763 39.3383 15.7199 39.3534 15.7624C38.7569 15.1561 37.719 14.9766 37.6184 13.8583C37.6018 13.6737 37.1319 12.9984 36.6568 13.4149C36.205 13.8106 36.6874 14.2287 36.9488 14.4761C38.1303 15.5949 39.0681 16.8589 39.6049 18.556C40.0588 18.0259 40.7367 17.68 39.8342 17.0363C39.3492 16.6903 39.5432 16.0798 39.314 15.6317Z" fill="#F3FF6D"/>
<path fill-rule="evenodd" clip-rule="evenodd" d="M45.2933 27.9609C45.1211 27.7062 44.9489 27.451 44.7772 27.1963C44.5702 27.0335 44.3633 26.8711 44.1568 26.7083C44.0837 26.7586 44.0116 26.8089 43.939 26.8592C44.4146 27.7083 44.8908 28.5568 45.3664 29.4059C45.4681 29.3727 45.5697 29.339 45.6714 29.3053C45.5453 28.8577 45.4193 28.409 45.2933 27.9609Z" fill="#F3FF6D"/>
<path fill-rule="evenodd" clip-rule="evenodd" d="M50.0756 37.6166C50.3526 36.642 49.6425 35.9952 49.2701 35.2436C48.9049 34.5066 48.4796 33.7991 48.0802 33.0781C47.9391 33.4448 47.9723 33.7695 48.1767 34.1285C48.8318 35.2789 49.4459 36.4521 50.0756 37.6166Z" fill="#F3FF6D"/>
</svg>
