<svg width="144" height="31" viewBox="0 0 144 31" fill="none" xmlns="http://www.w3.org/2000/svg">
<rect width="30.8847" height="30.8847" rx="15.4424" fill="#32A9DF"/>
<g clip-path="url(#clip0_107_303)">
<g clip-path="url(#clip1_107_303)">
<g clip-path="url(#clip2_107_303)">
<path opacity="0.21" d="M19.5555 24.1339C20.063 24.1708 20.5853 23.9051 20.8409 23.4658C21.1002 23.0266 21.0816 22.4435 20.7927 22.0227C20.3112 21.3288 19.011 21.2365 18.5109 21.9784C17.9479 22.8163 18.5665 24.0601 19.5555 24.1339Z" stroke="#27131F" stroke-width="0.949589" stroke-miterlimit="10"/>
<path opacity="0.21" d="M12.4968 9.17097C12.056 9.17097 11.6189 9.1931 11.1892 9.27799C10.8299 9.34812 10.4928 9.47731 10.2891 9.80209C10.2039 9.93867 10.1446 10.1047 10.1187 10.2635C10.0224 10.8651 10.2002 11.3892 10.6114 11.8432C10.9077 12.1679 11.2522 12.4226 11.6523 12.6035C11.7597 12.6515 11.8597 12.7068 11.9671 12.7585C12.1042 12.8249 12.1709 12.943 12.1449 13.0944C12.1042 13.3084 12.056 13.5225 11.9338 13.7107C11.7486 13.9949 11.4856 14.1795 11.1744 14.305C10.8114 14.4489 10.4595 14.4452 10.0965 14.2902C9.74829 14.1389 9.41491 13.9617 9.11116 13.7329C8.72222 13.4376 8.39624 13.0833 8.15547 12.6552C7.8332 12.0904 7.69615 11.4778 7.72208 10.8318C7.73689 10.4702 7.80727 10.1195 7.9184 9.77626C8.01471 9.48099 8.14436 9.20786 8.30364 8.94212C8.67777 8.31099 9.18524 7.81641 9.81497 7.44732C10.4002 7.10776 11.0262 6.92691 11.6967 6.91953C12.6783 6.91215 13.66 6.91215 14.6416 6.91953C15.212 6.92322 15.7825 6.95274 16.3529 6.9712C16.916 6.98965 17.4827 7.01549 18.0457 7.02287C19.0311 7.03394 20.0164 7.04502 20.998 7.03394C21.4425 7.02656 21.8907 6.9712 22.3353 6.92691C22.4649 6.91583 22.5908 6.87893 22.7168 6.85309C22.9427 6.8088 23.0539 6.86047 23.1502 7.06347C23.4132 7.60972 23.3687 8.1449 23.0687 8.65793C22.7761 9.1562 22.3278 9.46254 21.8018 9.66922C21.3351 9.85377 20.8462 9.90545 20.3535 9.93867C19.7719 9.97926 19.1941 9.94235 18.6162 9.87222C18.4162 9.84639 18.3754 9.89069 18.3569 10.09C18.3199 10.4554 18.2717 10.8208 18.231 11.1899C18.1865 11.5516 18.1458 11.917 18.105 12.2787C18.0939 12.3673 18.0939 12.4558 18.0754 12.5444C18.0569 12.6367 18.0939 12.6625 18.1791 12.6736C18.4162 12.7068 18.6532 12.6921 18.8903 12.6699C19.3904 12.6256 19.8645 12.4854 20.335 12.3267C20.4905 12.275 20.6461 12.2233 20.8054 12.1901C20.861 12.179 20.9387 12.2122 20.9869 12.2492C21.2314 12.4448 21.3351 12.7068 21.3462 13.0132C21.361 13.4118 21.287 13.7845 21.061 14.1204C20.8943 14.3714 20.6683 14.5597 20.4016 14.6999C19.8979 14.9619 19.3533 15.0542 18.7903 15.0542C18.5717 15.0542 18.3532 15.0432 18.1347 15.0358C17.9902 15.0321 17.9717 15.0505 17.9605 15.1945C17.942 15.4085 17.9272 15.6226 17.9013 15.8367C17.8235 16.5343 17.7494 17.2281 17.6568 17.9257C17.579 18.531 17.4605 19.1326 17.2827 19.7195C17.1938 20.0111 17.1086 20.3026 17.0012 20.5869C16.8419 21.0187 16.6233 21.421 16.3714 21.8048C16.0195 22.34 15.5898 22.8088 15.075 23.1963C14.5638 23.5764 14.0044 23.8643 13.371 23.9861C12.9598 24.0637 12.545 24.0784 12.1375 23.9861C11.5152 23.8385 10.9781 23.5396 10.5966 23.0081C10.3854 22.7128 10.2373 22.388 10.1483 22.0337C10.0002 21.4468 10.0002 20.86 10.1224 20.2694C10.2298 19.7527 10.4187 19.2655 10.6706 18.7968C10.9447 18.2874 11.2781 17.8224 11.6523 17.3832C12.019 16.9513 12.419 16.549 12.8561 16.1873C13.2414 15.8736 13.6377 15.5709 14.0304 15.2609C14.1971 15.1317 14.3637 15.0025 14.5267 14.866C14.6119 14.7959 14.6082 14.7811 14.5341 14.6999C14.4267 14.5818 14.3119 14.4711 14.2156 14.3419C13.997 14.0503 13.9044 13.5225 14.1267 13.1866C14.2637 12.9763 14.4563 12.8323 14.6897 12.7474C14.749 12.7253 14.8083 12.7105 14.8675 12.6957C15.0379 12.6515 15.0935 12.5924 15.112 12.4189C15.1639 11.9244 15.2713 11.4408 15.4194 10.9684C15.5343 10.5993 15.6751 10.2376 15.8047 9.87592C15.8343 9.79103 15.8751 9.70613 15.9084 9.62124C15.9306 9.5622 15.9195 9.52161 15.8454 9.51052C15.7528 9.49946 15.6639 9.48469 15.5713 9.4736C15.0935 9.41086 14.6193 9.33705 14.1415 9.28908C13.597 9.23001 13.0487 9.1931 12.5005 9.14512C12.5005 9.1525 12.5005 9.16359 12.4968 9.17097ZM14.7601 16.9403C14.749 16.9329 14.7342 16.9292 14.7231 16.9218C14.6045 17.0325 14.4823 17.1359 14.3712 17.254C13.9785 17.6784 13.6192 18.1287 13.2932 18.6085C12.9487 19.1142 12.6413 19.6457 12.4264 20.2215C12.3153 20.5167 12.2264 20.8194 12.2486 21.1368C12.2783 21.528 12.4487 21.7679 12.8709 21.8823C13.0487 21.9303 13.2154 21.8713 13.3599 21.7716C13.6081 21.6018 13.76 21.3508 13.8896 21.0851C14.0489 20.7566 14.1748 20.4171 14.2563 20.0627C14.3712 19.5571 14.486 19.0514 14.5712 18.5384C14.649 18.0807 14.686 17.6194 14.7416 17.158C14.749 17.0879 14.7527 17.0141 14.7601 16.9403Z" stroke="#27131F" stroke-width="0.949589" stroke-miterlimit="10"/>
<path d="M12.0281 8.73933C11.5873 8.73933 11.1502 8.76148 10.7205 8.84635C10.3612 8.91647 10.0241 9.04566 9.82036 9.37047C9.73516 9.50702 9.67588 9.67311 9.64996 9.83183C9.55364 10.4334 9.73146 10.9575 10.1426 11.4115C10.439 11.7363 10.7835 11.991 11.1835 12.1718C11.2909 12.2198 11.391 12.2752 11.4984 12.3269C11.6354 12.3933 11.7021 12.5114 11.6762 12.6627C11.6354 12.8768 11.5873 13.0909 11.465 13.2791C11.2798 13.5633 11.0168 13.7478 10.7057 13.8733C10.3427 14.0173 9.99074 14.0136 9.62774 13.8586C9.27954 13.7072 8.94616 13.5301 8.64241 13.3012C8.25347 13.006 7.9275 12.6517 7.68672 12.2235C7.36445 11.6588 7.2274 11.0461 7.25333 10.4002C7.26815 10.0385 7.33852 9.68787 7.44965 9.34462C7.54596 9.04934 7.67561 8.77622 7.83489 8.51049C8.20902 7.87935 8.7165 7.38477 9.34621 7.01568C9.93149 6.67612 10.5575 6.49158 11.228 6.48789C12.2096 6.4805 13.1912 6.4805 14.1728 6.48789C14.7433 6.49158 15.3137 6.5211 15.8842 6.53956C16.4472 6.55801 17.014 6.58385 17.577 6.59123C18.5623 6.6023 19.5476 6.61338 20.5293 6.6023C20.9738 6.59492 21.422 6.53956 21.8665 6.49527C21.9961 6.48419 22.1221 6.44729 22.248 6.42145C22.474 6.37716 22.5851 6.42883 22.6814 6.63183C22.9444 7.17808 22.9 7.71326 22.5999 8.22629C22.3073 8.72456 21.8591 9.0309 21.3331 9.2376C20.8664 9.42213 20.3774 9.47381 19.8847 9.50702C19.3032 9.54762 18.7253 9.5107 18.1474 9.4406C17.9474 9.41475 17.9067 9.45904 17.8882 9.65834C17.8511 10.0237 17.803 10.3891 17.7622 10.7582C17.7178 11.1199 17.677 11.4853 17.6363 11.847C17.6252 11.9356 17.6252 12.0242 17.6066 12.1128C17.5881 12.2051 17.6252 12.2309 17.7104 12.242C17.9474 12.2752 18.1845 12.2604 18.4216 12.2383C18.9216 12.194 19.3958 12.0537 19.8662 11.895C20.0218 11.8433 20.1774 11.7917 20.3367 11.7585C20.3922 11.7474 20.47 11.7806 20.5182 11.8175C20.7626 12.0131 20.8664 12.2752 20.8775 12.5815C20.8923 12.9801 20.8182 13.3529 20.5922 13.6888C20.4256 13.9398 20.1996 14.128 19.9329 14.2683C19.4291 14.5303 18.8846 14.6226 18.3216 14.6226C18.103 14.6226 17.8845 14.6115 17.6659 14.6041C17.5214 14.6004 17.5029 14.6189 17.4918 14.7628C17.4733 14.9769 17.4585 15.191 17.4325 15.405C17.3548 16.1026 17.2807 16.7965 17.1881 17.4941C17.1103 18.0994 16.9917 18.701 16.8139 19.2878C16.725 19.5794 16.6398 19.871 16.5324 20.1552C16.3731 20.587 16.1546 20.9893 15.9027 21.3732C15.5508 21.9084 15.1211 22.3771 14.6062 22.7647C14.095 23.1448 13.5357 23.4327 12.9023 23.5545C12.4911 23.632 12.0762 23.6468 11.6688 23.5545C11.0464 23.4069 10.5093 23.1079 10.1278 22.5764C9.91667 22.2812 9.76849 21.9563 9.67958 21.602C9.53142 21.0152 9.53142 20.4283 9.65366 19.8378C9.76108 19.3211 9.95 18.8339 10.2019 18.3651C10.476 17.8558 10.8094 17.3907 11.1835 16.9515C11.5502 16.5197 11.9503 16.1174 12.3874 15.7557C12.7726 15.442 13.169 15.1393 13.5616 14.8293C13.7283 14.7001 13.895 14.5709 14.058 14.4343C14.1432 14.3642 14.1395 14.3495 14.0654 14.2683C13.958 14.1502 13.8432 14.0394 13.7468 13.9102C13.5283 13.6187 13.4357 13.0909 13.6579 12.755C13.795 12.5446 13.9876 12.4007 14.221 12.3158C14.2802 12.2936 14.3395 12.2789 14.3988 12.2641C14.5692 12.2198 14.6247 12.1608 14.6433 11.9873C14.6951 11.4927 14.8025 11.0092 14.9507 10.5368C15.0655 10.1677 15.2063 9.80598 15.336 9.44428C15.3656 9.35939 15.4063 9.27449 15.4397 9.1896C15.4619 9.13056 15.4508 9.08996 15.3767 9.07888C15.2841 9.06781 15.1952 9.05305 15.1026 9.04196C14.6247 8.97922 14.1506 8.90541 13.6727 8.85743C13.1282 8.79837 12.58 8.76148 12.0318 8.71347C12.0318 8.72086 12.0281 8.72824 12.0281 8.73933ZM14.2877 16.5086C14.2765 16.5012 14.2617 16.4975 14.2506 16.4902C14.1321 16.6009 14.0098 16.7042 13.8987 16.8223C13.506 17.2468 13.1467 17.6971 12.8208 18.1769C12.4763 18.6825 12.1688 19.214 11.954 19.7898C11.8429 20.0851 11.754 20.3877 11.7762 20.7051C11.8058 21.0964 11.9762 21.3363 12.3985 21.4507C12.5763 21.4987 12.743 21.4396 12.8875 21.34C13.1356 21.1702 13.2875 20.9192 13.4172 20.6535C13.5764 20.325 13.7024 19.9854 13.7839 19.6311C13.8987 19.1255 14.0135 18.6198 14.0987 18.1068C14.1765 17.6491 14.2136 17.1877 14.2691 16.7264C14.2802 16.6563 14.284 16.5824 14.2877 16.5086Z" fill="white"/>
<path d="M19.2586 23.8829C19.7661 23.9198 20.2884 23.6541 20.544 23.2148C20.8033 22.7756 20.7848 22.1925 20.4959 21.7717C20.0143 21.0778 18.7141 20.9856 18.214 21.7274C17.651 22.5616 18.2696 23.8091 19.2586 23.8829Z" fill="white"/>
</g>
</g>
</g>
<path d="M42.8186 16.5706V13.8091H48.2628V16.5706H42.8186ZM43.6668 21.6598H40.7869V8.2268H49.249V11.0081H42.6608L43.6668 9.80482V21.6598Z" fill="#27131F"/>
<path d="M53.05 21.7584C52.5635 21.7584 52.1164 21.6598 51.7087 21.4625C51.301 21.2653 50.9723 20.9628 50.7224 20.5551C50.4726 20.1343 50.3477 19.5754 50.3477 18.8785V8.2268H53.2078V17.8528C53.2078 18.3393 53.2933 18.6549 53.4643 18.7996C53.6484 18.9311 53.8785 18.9968 54.1546 18.9968V21.6598C54.0231 21.6861 53.8456 21.7058 53.6221 21.7189C53.4117 21.7452 53.221 21.7584 53.05 21.7584Z" fill="#27131F"/>
<path d="M58.1891 21.6598H55.3092V12.0141H58.1891V21.6598ZM55.0528 8.97636C55.0528 8.4635 55.204 8.04927 55.5064 7.73366C55.8221 7.41806 56.2363 7.26025 56.7491 7.26025C57.262 7.26025 57.6697 7.41806 57.9721 7.73366C58.2877 8.04927 58.4455 8.4635 58.4455 8.97636C58.4455 9.47607 58.2877 9.88373 57.9721 10.1993C57.6697 10.5018 57.262 10.653 56.7491 10.653C56.2363 10.653 55.8221 10.5018 55.5064 10.1993C55.204 9.88373 55.0528 9.47607 55.0528 8.97636Z" fill="#27131F"/>
<path d="M62.014 12.0141L62.7635 14.677V21.6598H59.8836V12.0141H62.014ZM62.1323 16.2747L61.6392 16.0578V13.8288L61.8167 13.5921C61.9745 13.3685 62.1981 13.1121 62.4874 12.8228C62.7898 12.5335 63.1383 12.2902 63.5328 12.093C63.9405 11.8826 64.3547 11.7774 64.7755 11.7774C64.9859 11.7774 65.1766 11.7905 65.3475 11.8168C65.5185 11.8431 65.6566 11.8891 65.7618 11.9549V14.5784H65.1108C64.2692 14.5784 63.6051 14.7164 63.1186 14.9926C62.6452 15.2556 62.3164 15.683 62.1323 16.2747Z" fill="#27131F"/>
<path d="M71.1289 21.8176C70.0638 21.8176 69.2221 21.5546 68.6041 21.0286C67.9992 20.5025 67.6967 19.6412 67.6967 18.4445V12.1324L67.6573 12.0141L68.249 9.68647H70.5766V17.8133C70.5766 18.2604 70.6818 18.5826 70.8922 18.7799C71.1026 18.964 71.3788 19.056 71.7207 19.056C71.9179 19.056 72.102 19.0429 72.273 19.0166C72.4571 18.9771 72.6083 18.9377 72.7267 18.8982V21.6006C72.5031 21.6663 72.2598 21.7189 71.9968 21.7584C71.747 21.7978 71.4577 21.8176 71.1289 21.8176ZM66.1976 14.6573V12.0141H72.7267V14.6573H66.1976Z" fill="#27131F"/>
<path d="M77.5093 21.8965C76.7992 21.8965 76.2206 21.7913 75.7735 21.5809C75.3395 21.3705 74.9976 21.0812 74.7478 20.7129C74.5111 20.3316 74.3467 19.9042 74.2546 19.4308C74.1757 18.9442 74.1363 18.4314 74.1363 17.8922V12.0141H77.0162V17.7344C77.0162 18.2736 77.128 18.6352 77.3515 18.8193C77.5751 18.9903 77.8512 19.0757 78.18 19.0757C78.4693 19.0757 78.752 19.0297 79.0282 18.9377C79.3043 18.8325 79.5739 18.6878 79.8369 18.5037C80.0999 18.3065 80.3366 18.0697 80.547 17.7936L81.0401 19.2533H80.2314V12.0141H83.131V21.6598H80.981L80.3892 19.7464L81.3755 19.8253C81.0599 20.1935 80.6917 20.542 80.2709 20.8707C79.8632 21.1864 79.4292 21.4362 78.969 21.6203C78.5087 21.8044 78.0222 21.8965 77.5093 21.8965Z" fill="#27131F"/>
<path d="M89.6695 21.6598V8.2268H94.3642C95.7581 8.2268 96.9548 8.49638 97.9542 9.03554C98.9667 9.56154 99.7426 10.3308 100.282 11.3434C100.834 12.3428 101.11 13.5461 101.11 14.9531C101.11 16.3734 100.834 17.5832 100.282 18.5826C99.7426 19.582 98.9667 20.3447 97.9542 20.8707C96.9416 21.3968 95.7384 21.6598 94.3444 21.6598H89.6695ZM92.5494 19.9634L91.4054 18.8785H94.1472C94.9493 18.8785 95.6463 18.747 96.2381 18.484C96.843 18.2078 97.3098 17.7804 97.6386 17.2018C97.9805 16.6232 98.1514 15.8737 98.1514 14.9531C98.1514 14.0458 97.987 13.3028 97.6583 12.7242C97.3295 12.1456 96.8627 11.7182 96.2578 11.442C95.666 11.1527 94.9691 11.0081 94.1669 11.0081H91.2673L92.5494 10.1599V19.9634Z" fill="#27131F"/>
<path d="M104.982 21.9162C104.285 21.9162 103.667 21.7847 103.128 21.5217C102.602 21.2455 102.194 20.8642 101.905 20.3776C101.615 19.8911 101.471 19.3256 101.471 18.6812C101.471 17.9974 101.628 17.4188 101.944 16.9454C102.26 16.4588 102.681 16.0841 103.207 15.8211C103.746 15.5581 104.344 15.4265 105.002 15.4265C105.961 15.4265 106.737 15.6435 107.329 16.0775C107.921 16.5114 108.315 17.1361 108.513 17.9514L107.27 17.7344V15.4857C107.27 15.1307 107.145 14.8216 106.895 14.5586C106.645 14.2956 106.244 14.1641 105.692 14.1641C105.337 14.1641 104.929 14.2102 104.469 14.3022C104.009 14.3811 103.535 14.5389 103.049 14.7756L102.201 12.7242C102.779 12.4349 103.397 12.2047 104.055 12.0338C104.725 11.8628 105.409 11.7774 106.106 11.7774C107 11.7774 107.75 11.9352 108.355 12.2508C108.96 12.5664 109.407 13.0135 109.696 13.5921C109.999 14.1707 110.15 14.8414 110.15 15.6041V21.6598H107.803L107.23 19.7859L108.513 19.3913C108.302 20.1804 107.901 20.7984 107.309 21.2455C106.718 21.6926 105.942 21.9162 104.982 21.9162ZM105.869 19.8648C106.303 19.8648 106.645 19.753 106.895 19.5294C107.158 19.3059 107.29 19.0231 107.29 18.6812C107.29 18.313 107.158 18.0237 106.895 17.8133C106.645 17.6029 106.303 17.4977 105.869 17.4977C105.435 17.4977 105.094 17.6029 104.844 17.8133C104.594 18.0237 104.469 18.313 104.469 18.6812C104.469 19.0231 104.594 19.3059 104.844 19.5294C105.094 19.753 105.435 19.8648 105.869 19.8648Z" fill="#27131F"/>
<path d="M115.869 21.8176C114.804 21.8176 113.962 21.5546 113.344 21.0286C112.74 20.5025 112.437 19.6412 112.437 18.4445V12.1324L112.398 12.0141L112.989 9.68647H115.317V17.8133C115.317 18.2604 115.422 18.5826 115.633 18.7799C115.843 18.964 116.119 19.056 116.461 19.056C116.658 19.056 116.842 19.0429 117.013 19.0166C117.197 18.9771 117.349 18.9377 117.467 18.8982V21.6006C117.243 21.6663 117 21.7189 116.737 21.7584C116.487 21.7978 116.198 21.8176 115.869 21.8176ZM110.938 14.6573V12.0141H117.467V14.6573H110.938Z" fill="#27131F"/>
<path d="M121.914 21.6598H119.034V12.0141H121.914V21.6598ZM118.778 8.97636C118.778 8.4635 118.929 8.04927 119.232 7.73366C119.547 7.41806 119.962 7.26025 120.474 7.26025C120.987 7.26025 121.395 7.41806 121.697 7.73366C122.013 8.04927 122.171 8.4635 122.171 8.97636C122.171 9.47607 122.013 9.88373 121.697 10.1993C121.395 10.5018 120.987 10.653 120.474 10.653C119.962 10.653 119.547 10.5018 119.232 10.1993C118.929 9.88373 118.778 9.47607 118.778 8.97636Z" fill="#27131F"/>
<path d="M129.546 11.7774C130.191 11.7774 130.717 11.8891 131.124 12.1127C131.532 12.3231 131.841 12.619 132.051 13.0003C132.275 13.3817 132.42 13.8156 132.485 14.3022C132.564 14.7756 132.604 15.2687 132.604 15.7816V21.6598H129.724V15.9394C129.724 15.3871 129.625 15.0255 129.428 14.8545C129.231 14.6704 128.968 14.5784 128.639 14.5784C128.363 14.5784 128.073 14.6375 127.771 14.7559C127.482 14.8611 127.199 15.0123 126.923 15.2096C126.647 15.4068 126.403 15.6304 126.193 15.8802L125.68 14.4206H126.489V21.6598H123.609V12.0141H125.739L126.331 13.9274L125.345 13.8485C125.687 13.4672 126.075 13.1187 126.508 12.8031C126.942 12.4875 127.416 12.2376 127.929 12.0535C128.442 11.8694 128.981 11.7774 129.546 11.7774Z" fill="#27131F"/>
<path d="M138.321 25.6048C137.808 25.6048 137.282 25.5259 136.743 25.3681C136.217 25.2235 135.73 24.967 135.283 24.5988C134.836 24.2438 134.461 23.7704 134.159 23.1786L134.001 22.8433L136.072 21.7781C136.401 22.291 136.73 22.6592 137.059 22.8827C137.401 23.1063 137.834 23.2181 138.36 23.2181C138.965 23.2181 139.459 23.0208 139.84 22.6263C140.221 22.2449 140.412 21.6663 140.412 20.8905V18.2867H140.609V14.4403H140.412L141.142 12.0141H143.292V20.279C143.292 21.4099 143.095 22.3765 142.7 23.1786C142.306 23.9808 141.734 24.5857 140.984 24.9933C140.248 25.401 139.36 25.6048 138.321 25.6048ZM137.946 21.1469C137.078 21.1469 136.309 20.9496 135.638 20.5551C134.981 20.1606 134.455 19.6083 134.06 18.8982C133.679 18.1881 133.488 17.3794 133.488 16.472C133.488 15.5515 133.672 14.7427 134.041 14.0458C134.422 13.3357 134.948 12.7834 135.619 12.3888C136.289 11.9812 137.052 11.7774 137.907 11.7774C138.709 11.7774 139.413 11.9746 140.017 12.3691C140.622 12.7636 141.096 13.3094 141.438 14.0063C141.78 14.7033 141.951 15.5252 141.951 16.472C141.951 17.4451 141.786 18.2802 141.457 18.9771C141.129 19.6741 140.662 20.2132 140.057 20.5946C139.465 20.9628 138.762 21.1469 137.946 21.1469ZM138.499 18.6221C139.103 18.6221 139.597 18.4182 139.978 18.0106C140.372 17.6029 140.57 17.0901 140.57 16.472C140.57 15.8276 140.372 15.3016 139.978 14.894C139.597 14.4863 139.103 14.2825 138.499 14.2825C137.894 14.2825 137.394 14.4863 136.999 14.894C136.618 15.3016 136.427 15.8276 136.427 16.472C136.427 17.0901 136.618 17.6029 136.999 18.0106C137.394 18.4182 137.894 18.6221 138.499 18.6221Z" fill="#27131F"/>
<defs>
<clipPath id="clip0_107_303">
<rect width="30.8847" height="18.517" fill="white" transform="translate(0.000244141 6.16895)"/>
</clipPath>
<clipPath id="clip1_107_303">
<rect width="30.8847" height="18.517" fill="white" transform="translate(0.000244141 6.16895)"/>
</clipPath>
<clipPath id="clip2_107_303">
<rect width="16.8552" height="18.517" fill="white" transform="translate(7.01392 6.16895)"/>
</clipPath>
</defs>
</svg>
