<svg width="36" height="36" viewBox="0 0 36 36" fill="none" xmlns="http://www.w3.org/2000/svg">
<rect y="5.37109" width="30.5792" height="30.5792" rx="8.40927" fill="url(#paint0_linear_107_2484)"/>
<path d="M9.84595 21.892L11.8759 27.5107C11.8759 27.5107 12.1297 28.0364 12.4015 28.0364C12.6732 28.0364 16.7153 23.8313 16.7153 23.8313L21.2103 15.1494L9.91838 20.4417L9.84595 21.892Z" fill="#C8DAEA"/>
<path d="M12.5369 23.333L12.1472 27.4745C12.1472 27.4745 11.9841 28.7435 13.2528 27.4745C14.5215 26.2055 15.7359 25.2269 15.7359 25.2269" fill="#A9C6D8"/>
<path d="M9.88187 22.0923L5.70617 20.7318C5.70617 20.7318 5.20713 20.5293 5.36782 20.0702C5.4009 19.9755 5.46763 19.895 5.66724 19.7565C6.59247 19.1116 22.7924 13.2889 22.7924 13.2889C22.7924 13.2889 23.2498 13.1348 23.5196 13.2373C23.5863 13.258 23.6463 13.296 23.6936 13.3475C23.7408 13.399 23.7735 13.4621 23.7883 13.5303C23.8175 13.6509 23.8297 13.775 23.8245 13.8989C23.8233 14.0061 23.8103 14.1055 23.8004 14.2614C23.7018 15.8533 20.7492 27.7345 20.7492 27.7345C20.7492 27.7345 20.5725 28.4298 19.9396 28.4536C19.784 28.4586 19.6291 28.4322 19.4839 28.3761C19.3388 28.32 19.2064 28.2352 19.0948 28.1268C17.8527 27.0584 13.5598 24.1734 12.6112 23.5389C12.5898 23.5243 12.5718 23.5053 12.5584 23.4831C12.5449 23.461 12.5364 23.4362 12.5334 23.4105C12.5201 23.3437 12.5928 23.2608 12.5928 23.2608C12.5928 23.2608 20.0679 16.6164 20.2668 15.9189C20.2822 15.8649 20.224 15.8382 20.1459 15.8619C19.6494 16.0445 11.0428 21.4797 10.0929 22.0795C10.0245 22.1002 9.95225 22.1046 9.88187 22.0923Z" fill="white"/>
<circle cx="28.0945" cy="7.98364" r="7.54565" fill="#FF0467"/>
<path d="M30.1661 9.57535V10.7646H25.6777C25.7263 10.3151 25.8721 9.88976 26.1151 9.48877C26.3582 9.08474 26.8381 8.55009 27.5551 7.88481C28.1322 7.34712 28.4862 6.98258 28.6168 6.7912C28.793 6.52691 28.8811 6.26566 28.8811 6.00745C28.8811 5.72189 28.8036 5.50317 28.6487 5.35128C28.4968 5.19635 28.2857 5.11889 28.0153 5.11889C27.748 5.11889 27.5353 5.19939 27.3774 5.3604C27.2194 5.5214 27.1283 5.78873 27.104 6.16238L25.8281 6.03479C25.904 5.33002 26.1425 4.82422 26.5435 4.5174C26.9445 4.21059 27.4457 4.05718 28.0472 4.05718C28.7064 4.05718 29.2243 4.23489 29.601 4.59031C29.9777 4.94574 30.1661 5.38774 30.1661 5.91631C30.1661 6.21706 30.1114 6.50413 30.002 6.77753C29.8957 7.0479 29.7256 7.33193 29.4917 7.62963C29.3367 7.82709 29.0573 8.11113 28.6532 8.48174C28.2492 8.85235 27.9925 9.09841 27.8832 9.21993C27.7768 9.34144 27.6902 9.45991 27.6234 9.57535H30.1661Z" fill="white"/>
<defs>
<linearGradient id="paint0_linear_107_2484" x1="15.2896" y1="35.9502" x2="15.2896" y2="5.37109" gradientUnits="userSpaceOnUse">
<stop stop-color="#1D93D2"/>
<stop offset="1" stop-color="#38B0E3"/>
</linearGradient>
</defs>
</svg>
